<?xml version="1.0" encoding="UTF-8" standalone="no"?>
<svg width="579px" height="100px" viewBox="0 0 579 100" version="1.1" xmlns="http://www.w3.org/2000/svg" xmlns:xlink="http://www.w3.org/1999/xlink" xmlns:sketch="http://www.bohemiancoding.com/sketch/ns">
    <!-- Generator: Sketch 3.2.2 (9983) - http://www.bohemiancoding.com/sketch -->
    <title>logo</title>
    <desc>Created with Sketch.</desc>
    <defs></defs>
    <g id="Welcome" stroke="none" stroke-width="1" fill="none" fill-rule="evenodd" sketch:type="MSPage">
        <g id="Desktop-2" sketch:type="MSArtboardGroup" transform="translate(-195.000000, -130.000000)">
            <g id="logo" sketch:type="MSLayerGroup" transform="translate(195.000000, 130.000000)">
                <rect id="Rectangle-1" stroke="#FFFFFF" stroke-width="2" sketch:type="MSShapeGroup" x="0" y="0" width="578.313981" height="99.7374557"></rect>
                <path d="M29,70.7425987 L29,28.6620066 L31.9358553,28.6620066 L31.9358553,67.9794408 L51.9975329,67.9794408 L51.9975329,70.7425987 L29,70.7425987 Z M96.737584,49.6447368 C96.737584,56.3224018 95.0681928,61.6040102 91.7293603,65.4897204 C88.3905278,69.3754306 83.7853107,71.3182566 77.9135708,71.3182566 C72.0610196,71.3182566 67.4653967,69.3754306 64.1265642,65.4897204 C60.7877317,61.6040102 59.1183405,56.3032134 59.1183405,49.5871711 C59.1183405,42.8903174 60.802123,37.6183032 64.1697386,33.7709704 C67.5373541,29.9236376 72.1377741,28 77.9711366,28 C83.8428765,28 88.4384994,29.9332318 91.7581432,33.7997533 C95.077787,37.6662748 96.737584,42.9478832 96.737584,49.6447368 L96.737584,49.6447368 Z M62.3132419,49.6447368 C62.3132419,55.6699863 63.6564302,60.3279715 66.3428471,63.6188322 C69.0292641,66.909693 72.8861334,68.5550987 77.9135708,68.5550987 C82.9793856,68.5550987 86.8506462,66.9240843 89.5274688,63.6620066 C92.2042914,60.3999289 93.5426826,55.7275523 93.5426826,49.6447368 C93.5426826,43.58111 92.2042914,38.932719 89.5274688,35.6994243 C86.8506462,32.4661297 82.998574,30.8495066 77.9711366,30.8495066 C72.9628879,30.8495066 69.1012214,32.480521 66.3860215,35.7425987 C63.6708215,39.0046764 62.3132419,43.6386761 62.3132419,49.6447368 L62.3132419,49.6447368 Z M126.251484,49.5296053 L141.765464,49.5296053 L141.765464,68.7277961 C137.697461,70.4547784 133.121027,71.3182566 128.036023,71.3182566 C121.396736,71.3182566 116.307011,69.44259 112.766698,65.6912007 C109.226384,61.9398113 107.456253,56.6294203 107.456253,49.7598684 C107.456253,45.48079 108.334123,41.686283 110.089888,38.3762336 C111.845654,35.0661841 114.359335,32.5093292 117.631007,30.7055921 C120.902679,28.901855 124.658809,28 128.89951,28 C133.485608,28 137.60152,28.8442898 141.247372,30.5328947 L140.067273,33.1809211 C136.421422,31.4923161 132.641306,30.6480263 128.726813,30.6480263 C123.181281,30.6480263 118.782339,32.3605914 115.529855,35.785773 C112.277372,39.2109546 110.651155,43.830563 110.651155,49.6447368 C110.651155,55.9770053 112.195821,60.7405268 115.285201,63.9354441 C118.37458,67.1303614 122.912638,68.7277961 128.89951,68.7277961 C132.775626,68.7277961 136.066437,68.1809265 138.772043,67.0871711 L138.772043,52.2927632 L126.251484,52.2927632 L126.251484,49.5296053 Z M155.621469,70.7425987 L155.621469,28.6620066 L158.557324,28.6620066 L158.557324,70.7425987 L155.621469,70.7425987 Z M191.726652,30.7055921 C186.449761,30.7055921 182.295472,32.3941717 179.263658,35.7713816 C176.231845,39.1485914 174.715961,43.772997 174.715961,49.6447368 C174.715961,55.6507976 176.145497,60.3135799 179.004612,63.6332237 C181.863727,66.9528675 185.950858,68.6126645 191.266125,68.6126645 C194.796845,68.6126645 198.039685,68.161737 200.994744,67.2598684 L200.994744,69.8503289 C198.212383,70.8289523 194.739282,71.3182566 190.575336,71.3182566 C184.665219,71.3182566 180.01203,69.4090103 176.615632,65.5904605 C173.219233,61.7719107 171.52106,56.4375343 171.52106,49.5871711 C171.52106,45.3080926 172.33177,41.5375711 173.953214,38.2754934 C175.574659,35.0134157 177.90605,32.4949376 180.947458,30.7199836 C183.988865,28.9450295 187.524329,28.0575658 191.553954,28.0575658 C195.660334,28.0575658 199.334914,28.825102 202.577803,30.3601974 L201.397704,33.0082237 C198.327513,31.4731283 195.103862,30.7055921 191.726652,30.7055921 L191.726652,30.7055921 Z M233.933808,55.890625 L216.836769,55.890625 L210.965058,70.7425987 L207.712591,70.7425987 L224.636933,28.4893092 L226.507821,28.4893092 L243.086769,70.7425987 L239.776736,70.7425987 L233.933808,55.890625 Z M217.901736,53.2425987 L232.95519,53.2425987 L227.227394,38.0740132 C226.747676,36.8843142 226.172024,35.2341114 225.50042,33.1233553 C224.982325,34.9654697 224.416267,36.6348609 223.802229,38.1315789 L217.901736,53.2425987 Z M252.33751,70.7425987 L252.33751,28.6620066 L255.273366,28.6620066 L255.273366,67.9794408 L275.335043,67.9794408 L275.335043,70.7425987 L252.33751,70.7425987 Z M321.036362,49.5296053 L336.550343,49.5296053 L336.550343,68.7277961 C332.48234,70.4547784 327.905905,71.3182566 322.820902,71.3182566 C316.181614,71.3182566 311.09189,69.44259 307.551576,65.6912007 C304.011263,61.9398113 302.241132,56.6294203 302.241132,49.7598684 C302.241132,45.48079 303.119002,41.686283 304.874767,38.3762336 C306.630532,35.0661841 309.144213,32.5093292 312.415886,30.7055921 C315.687558,28.901855 319.443688,28 323.684389,28 C328.270486,28 332.386399,28.8442898 336.032251,30.5328947 L334.852152,33.1809211 C331.2063,31.4923161 327.426185,30.6480263 323.511691,30.6480263 C317.966159,30.6480263 313.567218,32.3605914 310.314734,35.785773 C307.062251,39.2109546 305.436034,43.830563 305.436034,49.6447368 C305.436034,55.9770053 306.9807,60.7405268 310.07008,63.9354441 C313.159459,67.1303614 317.697517,68.7277961 323.684389,68.7277961 C327.560505,68.7277961 330.851316,68.1809265 333.556922,67.0871711 L333.556922,52.2927632 L321.036362,52.2927632 L321.036362,49.5296053 Z M353.342203,52.4078947 L353.342203,70.7425987 L350.406348,70.7425987 L350.406348,28.6620066 L360.422795,28.6620066 C365.642119,28.6620066 369.498989,29.6262239 371.993519,31.5546875 C374.488049,33.4831511 375.735295,36.3853973 375.735295,40.2615132 C375.735295,43.0822509 374.991744,45.4616131 373.504621,47.3996711 C372.017497,49.337729 369.758062,50.7288883 366.726249,51.5731908 L378.153058,70.7425987 L374.641545,70.7425987 L363.790394,52.4078947 L353.342203,52.4078947 Z M353.342203,49.875 L361.372631,49.875 C364.922539,49.875 367.676075,49.0834783 369.633321,47.5004112 C371.590568,45.9173441 372.569177,43.5811558 372.569177,40.4917763 C372.569177,37.2872647 371.609756,34.9558735 369.690887,33.4975329 C367.772018,32.0391923 364.644308,31.3100329 360.307664,31.3100329 L353.342203,31.3100329 L353.342203,49.875 Z M424.101991,49.6447368 C424.101991,56.3224018 422.4326,61.6040102 419.093767,65.4897204 C415.754935,69.3754306 411.149718,71.3182566 405.277978,71.3182566 C399.425427,71.3182566 394.829804,69.3754306 391.490971,65.4897204 C388.152139,61.6040102 386.482748,56.3032134 386.482748,49.5871711 C386.482748,42.8903174 388.16653,37.6183032 391.534146,33.7709704 C394.901761,29.9236376 399.502181,28 405.335544,28 C411.207283,28 415.802906,29.9332318 419.12255,33.7997533 C422.442194,37.6662748 424.101991,42.9478832 424.101991,49.6447368 L424.101991,49.6447368 Z M389.677649,49.6447368 C389.677649,55.6699863 391.020837,60.3279715 393.707254,63.6188322 C396.393671,66.909693 400.25054,68.5550987 405.277978,68.5550987 C410.343793,68.5550987 414.215053,66.9240843 416.891876,63.6620066 C419.568698,60.3999289 420.90709,55.7275523 420.90709,49.6447368 C420.90709,43.58111 419.568698,38.932719 416.891876,35.6994243 C414.215053,32.4661297 410.362981,30.8495066 405.335544,30.8495066 C400.327295,30.8495066 396.465628,32.480521 393.750428,35.7425987 C391.035228,39.0046764 389.677649,43.6386761 389.677649,49.6447368 L389.677649,49.6447368 Z M472.439904,49.6447368 C472.439904,56.3224018 470.770513,61.6040102 467.43168,65.4897204 C464.092848,69.3754306 459.487631,71.3182566 453.615891,71.3182566 C447.76334,71.3182566 443.167717,69.3754306 439.828884,65.4897204 C436.490052,61.6040102 434.82066,56.3032134 434.82066,49.5871711 C434.82066,42.8903174 436.504443,37.6183032 439.872058,33.7709704 C443.239674,29.9236376 447.840094,28 453.673456,28 C459.545196,28 464.140819,29.9332318 467.460463,33.7997533 C470.780107,37.6662748 472.439904,42.9478832 472.439904,49.6447368 L472.439904,49.6447368 Z M438.015562,49.6447368 C438.015562,55.6699863 439.35875,60.3279715 442.045167,63.6188322 C444.731584,66.909693 448.588453,68.5550987 453.615891,68.5550987 C458.681706,68.5550987 462.552966,66.9240843 465.229789,63.6620066 C467.906611,60.3999289 469.245003,55.7275523 469.245003,49.6447368 C469.245003,43.58111 467.906611,38.932719 465.229789,35.6994243 C462.552966,32.4661297 458.700894,30.8495066 453.673456,30.8495066 C448.665208,30.8495066 444.803541,32.480521 442.088341,35.7425987 C439.373141,39.0046764 438.015562,43.6386761 438.015562,49.6447368 L438.015562,49.6447368 Z M509.696402,28.6620066 L512.891304,28.6620066 L497.14706,70.7425987 L494.5566,70.7425987 L478.869922,28.6620066 L482.007258,28.6620066 L492.599363,57.3009868 C494.211213,61.6184426 495.295358,64.861283 495.85183,67.0296053 C496.235604,65.5904533 496.993546,63.3550042 498.125679,60.3231908 L509.696402,28.6620066 Z M545.139578,70.7425987 L522.142045,70.7425987 L522.142045,28.6620066 L545.139578,28.6620066 L545.139578,31.3675987 L525.077901,31.3675987 L525.077901,47.2845395 L544.017045,47.2845395 L544.017045,49.9901316 L525.077901,49.9901316 L525.077901,68.0370066 L545.139578,68.0370066 L545.139578,70.7425987 Z" id="LOGICAL-GROOVE" fill="#FFFFFF" sketch:type="MSShapeGroup"></path>
            </g>
        </g>
    </g>
</svg>